<svg xmlns="http://www.w3.org/2000/svg" xml:space="preserve" viewBox="0 0 883 205"><path fill="#5769E9" d="m132 99-2 7-6 3-6-3-7-4a288 288 0 0 0 3 65l-3 6c-1 2-3 2-5 2-6 0-10-9-11-29-9 21-23 31-42 31-16 0-29-7-38-21A98 98 0 0 1 0 98c0-29 7-52 19-68C32 14 50 6 73 6c12 0 23 2 31 7 8 4 12 8 12 13l-2 7c-2 2-3 3-5 3l-5-2-6-4c-8-4-16-5-25-5-18 0-32 6-41 18a88 88 0 0 0-15 55c0 19 4 34 10 45 7 10 16 15 28 15 11 0 19-5 26-15 7-9 12-24 15-45l-13-2-13 3-9 2-5-3-2-7c0-4 3-7 9-10s14-4 24-4c13 0 24 2 33 7 8 5 12 10 12 15zm97-13c0 19-5 34-14 45s-22 17-37 17c-13 0-23-6-30-16s-11-25-11-43c0-20 5-35 13-46 9-10 21-15 36-15 13 0 23 5 31 16 8 10 12 24 12 42zm-16 0c0-13-3-23-8-30s-13-11-22-11c-20 0-30 14-30 43 0 14 2 24 7 31 4 7 10 11 19 11 10 0 18-4 24-12 7-7 10-18 10-32zm116 0c0 19-4 34-13 45a48 48 0 0 1-37 17c-13 0-23-6-30-16s-11-25-11-43c0-20 4-35 13-46 9-10 20-15 36-15 12 0 23 5 31 16 7 10 11 24 11 42zm-16 0c0-13-2-23-7-30-6-7-13-11-22-11-20 0-30 15-30 44 0 13 2 23 7 30 4 7 10 11 18 11 11 0 19-4 25-12 6-7 9-18 9-32zm110-57c0 3-1 5-3 6l-4 3-9-4c-5-3-11-5-17-5-9 0-15 5-19 14-2 4-3 10-3 19l-1 27c15 1 24 2 29 4 6 2 9 5 9 9 1 3 0 5-1 6l-4 3-11-2-22-3-2 53c-2 11-5 17-10 17s-7-3-7-11l1-19c2-14 2-28 2-41l-12-2c-3-1-4-4-4-8 0-5 2-8 7-8h10V62l2-18c6-22 18-32 36-32 9 0 18 2 24 5 6 4 9 8 9 12zm123 112c0 6-4 13-11 20a65 65 0 0 1-47 18c-21 0-37-8-48-23-11-14-17-35-17-62 0-26 6-47 17-63 12-18 29-27 49-27 18 0 32 6 43 17 4 4 6 7 6 11l-2 7-6 3-6-4a54 54 0 0 0-35-15c-15 0-27 7-36 19-9 13-13 30-13 52 0 43 16 65 47 65 19 0 31-5 39-16l6-8c1-2 3-4 5-4 3 0 5 1 6 3 2 2 3 4 3 7zm96-55c0 19-5 34-14 45s-21 17-37 17c-12 0-22-6-30-16-7-10-10-25-10-43 0-20 4-35 13-46 8-10 20-15 35-15 13 0 23 5 31 16 8 10 12 24 12 42zm-16 0c0-13-3-23-8-30s-12-11-21-11c-20 0-31 14-31 43 0 14 3 24 7 31s11 11 19 11c10 0 19-4 25-12 6-7 9-18 9-32zm91-26c0 2 0 5-2 6-1 2-2 3-4 3l-6-4-6-3c-5 0-10 2-13 8-3 5-4 12-4 21v13c0 14-2 25-4 33s-5 12-9 12c-5 0-7-3-7-9l2-12 2-21a118 118 0 0 0-11-53l-2-7 3-6c1-2 3-3 5-3 6 0 10 9 14 25 6-13 14-19 24-19 6 0 10 1 13 4 4 4 5 7 5 12zm98-49-1 14a1696 1696 0 0 0-3 110l1 8c0 9-3 14-8 14-6 0-8-6-8-16v-6a45 45 0 0 1-35 18c-11 0-20-5-27-13-6-9-9-21-9-36 0-20 4-37 14-49 9-13 22-19 37-19 7 0 14 2 22 6l1-32c1-7 4-10 9-10s7 4 7 11zm-18 49c-7-5-14-8-21-8-11 1-20 5-26 14s-9 21-9 37c0 10 2 18 6 24s10 9 18 9c9 0 16-4 21-11l4-8 6-5 1-52zM301 160c-12 22-42 29-65 30-26 1-52-8-71-28-6-7-17 4-10 11 21 23 53 34 84 32 28-2 61-11 76-37 4-9-9-17-14-8z"/><circle cx="836.8" cy="156.2" r="46.5" fill="#23272B"/><circle cx="836.8" cy="156.4" r="35.6" fill="#ED4245"/><text fill="#FFF" font-family="'Impact'" font-size="50.5" transform="translate(826 177)">1</text></svg>