<?xml version="1.0" encoding="utf-8"?>
<!-- Generator: Adobe Illustrator 27.1.1, SVG Export Plug-In . SVG Version: 6.00 Build 0)  -->
<svg version="1.2" baseProfile="tiny" id="Layer_1" xmlns="http://www.w3.org/2000/svg" xmlns:xlink="http://www.w3.org/1999/xlink"
	 x="0px" y="0px" viewBox="0 0 872.4 205.4" overflow="visible" xml:space="preserve">
<g>
	<path fill="#5165F6" d="M131.9,99c0,2.4-0.8,4.7-2.4,6.7c-1.6,2-3.4,3-5.4,3c-1.4,0-3.3-0.9-5.7-2.6c-3.2-2.3-5.6-3.8-7.1-4.5
		c-0.8,8.8-1.2,17.5-1.2,26.1c0,10.1,0.6,19.4,1.8,28c1.2,8.5,1.8,12.3,1.8,11.2c0,2.4-0.8,4.4-2.3,6c-1.6,1.6-3.4,2.4-5.5,2.4
		c-6.1,0-9.8-9.8-11-29.3c-8.8,20.7-22.7,31-41.5,31c-16.2,0-29.1-6.9-38.7-20.7C4.9,142.2,0,122.9,0,98.4C0,69.1,6.5,46.3,19.4,30
		c13-16.3,30.9-24.5,53.8-24.5c12,0,22.4,2.3,31.1,7c8,4.2,12,8.8,12,13.6c0,2.6-0.8,4.8-2.3,6.8c-1.5,2-3.2,2.9-5.1,2.9
		c-1.2,0-2.9-0.6-4.9-1.9c-3.6-2.2-5.7-3.4-6.1-3.6c-7.6-3.8-15.7-5.7-24.5-5.7c-18.1,0-32,6.3-41.8,18.9
		C22.1,56,17.2,74.1,17.2,97.9c0,19.4,3.4,34.4,10.1,44.9c6.6,10.4,15.7,15.6,27.5,15.6c11,0,19.7-5,26.4-15
		c6.5-9.8,11.4-24.9,14.5-45.4c-4.9-1.2-9.1-1.7-12.4-1.7c-4,0-8.4,0.8-13.2,2.4c-4.8,1.6-7.7,2.4-8.7,2.4c-1.8,0-3.4-1-4.9-2.9
		c-1.4-2-2.2-4.2-2.2-6.8c0-4.2,2.8-7.6,8.4-10.3c6-2.8,14.1-4.2,24.5-4.2c12.7,0,23.5,2.5,32.5,7.4C127.8,88.9,131.9,93.8,131.9,99
		z"/>
	<path fill="#5165F6" d="M228.6,85.9c0,18.8-4.6,33.8-13.8,45c-9.2,11.2-21.5,16.7-36.8,16.7c-12.7,0-22.7-5.2-29.9-15.6
		c-7.2-10.4-10.8-24.8-10.8-43.3c0-19.4,4.4-34.5,13.1-45.3c8.6-10.6,20.4-15.8,35.6-15.8c12.7,0,23,5.3,30.9,16
		C224.6,54.2,228.6,68.4,228.6,85.9z M212.6,86.1c0-12.9-2.6-22.9-7.8-30.2c-5.2-7.3-12.3-10.9-21.4-10.9
		c-20.1,0-30.2,14.5-30.2,43.5c0,13.4,2.2,23.7,6.6,30.8c4.4,7.2,10.7,10.8,18.8,10.8c10.6,0,18.9-3.9,24.9-11.6
		C209.6,110.8,212.6,99.9,212.6,86.1z"/>
	<path fill="#5165F6" d="M329.3,85.9c0,18.8-4.6,33.8-13.8,45c-9.2,11.2-21.5,16.7-36.8,16.7c-12.7,0-22.7-5.2-29.9-15.6
		c-7.2-10.4-10.8-24.8-10.8-43.3c0-19.4,4.4-34.5,13.1-45.3c8.6-10.6,20.4-15.8,35.6-15.8c12.7,0,23,5.3,30.9,16
		C325.4,54.2,329.3,68.4,329.3,85.9z M313.4,86.1c0-12.9-2.6-22.9-7.8-30.2c-5.2-7.3-12.3-10.9-21.4-10.9C264,45,254,59.5,254,88.5
		c0,13.4,2.2,23.7,6.6,30.8c4.4,7.2,10.7,10.8,18.8,10.8c10.6,0,18.9-3.9,24.9-11.6C310.3,110.8,313.4,99.9,313.4,86.1z"/>
	<path fill="#5165F6" d="M422.7,29.3c0,2.2-0.7,4.3-2.2,6.1c-1.4,1.8-3.1,2.7-4.9,2.7c-0.4,0-3.3-1.5-8.7-4.4
		c-5.4-2.9-11-4.4-16.8-4.4c-9,0-15.4,4.4-19,13.3c-1.7,4.2-2.8,10.6-3.1,19c-0.2,9-0.4,17.9-0.6,26.9c14.5,1.4,24.1,2.8,28.8,4.2
		c6.2,1.9,9.3,5.1,9.3,9.5c0,2.5-0.5,4.6-1.6,6.2c-1.1,1.6-2.4,2.4-3.8,2.4c-0.9,0-4.5-0.7-11.1-2c-7.6-1.5-14.8-2.6-21.7-3.3
		c-0.8,28.8-1.6,46.5-2.5,53.3c-1.4,11.5-4.6,17.3-9.4,17.3c-5.1,0-7.7-3.6-7.7-10.7l1.7-19.7c1.2-13.6,1.9-27.3,2.1-41.2
		c-6.5-0.1-10.8-0.7-12.9-1.6c-2.7-1.2-4-3.8-4-7.7c0-5.5,2.5-8.3,7.4-8.3h0.3l9.4,0.4c0.2-8.5,0.4-17,0.6-25.4c0.3-8,1-14,2.1-18.1
		c5.6-21.5,17.3-32.2,35.1-32.2c9.9,0,18.1,1.9,24.5,5.7C419.8,20.7,422.7,24.7,422.7,29.3z"/>
	<path fill="#5165F6" d="M545.5,140.9c0,6.2-3.7,12.8-11,19.9c-12.2,11.8-27.9,17.8-47,17.8c-20.5,0-36.4-7.4-47.7-22.2
		c-11.3-14.8-16.9-35.6-16.9-62.6c0-25.9,5.7-47,17.1-63.3c12.3-17.5,28.7-26.3,49.1-26.3c17.4,0,31.7,5.4,42.8,16.3
		c4.2,4,6.3,7.8,6.3,11.2c0,2.6-0.8,4.8-2.5,6.8c-1.7,2-3.6,3-5.7,3c-1.4,0-3.4-1.1-5.9-3.4c-11.5-9.9-23.3-14.9-35.3-14.9
		c-14.9,0-26.8,6.3-35.7,18.9c-8.9,12.6-13.3,29.7-13.3,51.4c0,43.6,15.9,65.4,47.6,65.4c18.1,0,31-5.2,38.8-15.7
		c1.8-2.8,3.5-5.5,5.3-8.3c1.7-2.4,3.7-3.6,5.9-3.6c2.3,0,4.2,0.9,5.7,2.7C544.8,135.8,545.5,138.1,545.5,140.9z"/>
	<path fill="#5165F6" d="M648.8,85.9c0,18.8-4.6,33.8-13.8,45c-9.2,11.2-21.5,16.7-36.8,16.7c-12.7,0-22.7-5.2-29.9-15.6
		c-7.2-10.4-10.8-24.8-10.8-43.3c0-19.4,4.4-34.5,13.1-45.3c8.5-10.6,20.4-15.8,35.6-15.8c12.7,0,23,5.3,30.9,16
		C644.8,54.2,648.8,68.4,648.8,85.9z M632.8,86.1c0-12.9-2.6-22.9-7.8-30.2c-5.2-7.3-12.3-10.9-21.4-10.9
		c-20.1,0-30.2,14.5-30.2,43.5c0,13.4,2.2,23.7,6.6,30.8c4.4,7.2,10.7,10.8,18.8,10.8c10.6,0,18.9-3.9,24.9-11.6
		C629.8,110.8,632.8,99.9,632.8,86.1z"/>
	<path fill="#5165F6" d="M724.3,60c0,2.4-0.6,4.5-1.8,6.1c-1.2,1.7-2.7,2.5-4.4,2.5c-1.3,0-3.2-1.1-5.7-3.4
		c-2.5-2.2-4.8-3.4-6.8-3.4c-5.1,0-9.2,2.7-12.3,8c-3.2,5.3-4.7,12.6-4.7,21.6v12.6c0,14-1.2,25.1-3.7,33.4
		c-2.3,7.7-5.3,11.6-8.9,11.6c-4.9,0-7.3-2.9-7.3-8.6c0-1.2,0.7-5.4,2.2-12.7c1.5-7.3,2.2-14.2,2.2-20.7c0-17.9-2.1-32.2-6.4-43
		c-0.1-0.3-1.6-3.6-4.4-9.7c-1.4-3.1-2.2-5.6-2.2-7.5c0-2,0.8-4,2.5-5.8c1.7-1.8,3.4-2.7,5.4-2.7c5.7,0,10.4,8.3,14.1,24.9
		c5.6-12.8,13.7-19.2,24.3-19.2c5.3,0,9.7,1.5,13,4.5C722.6,51.7,724.3,55.4,724.3,60z"/>
	<path fill="#5165F6" d="M301.1,160.2c-11.9,22-41.8,28.9-64.9,29.7c-26.6,0.9-52.5-7.9-70.8-27.6c-6.8-7.3-17.7,3.7-10.9,10.9
		c21.6,23.2,53.3,33.8,84.7,31.9c27.9-1.6,61.2-10.9,75.4-37.2C319.3,159.2,305.9,151.4,301.1,160.2z"/>
	<path fill="#5165F6" d="M818.3,113.5c0.1-18.1,0.4-35.4,0.9-51.7c0.5-13,1.1-25.4,1.8-36.9c0.6-10,1-14.8,1-14.4
		c0-7-2.3-10.5-6.8-10.5c-4.7,0-7.7,3.3-8.9,9.8c-0.6,3.5-1.1,14.1-1.5,31.9c-7.6-3.9-14.9-5.9-22-5.9c-15.3,0-27.6,6.3-37,18.9
		c-9.4,12.6-14.1,29.1-14.1,49.6c0,15,3.2,26.9,9.7,35.5c6.5,8.6,15.3,12.9,26.4,12.9c8.6,0,16.6-2.5,23.9-7.6
		C795.1,130.9,805.1,119.2,818.3,113.5z M754.1,127.2c-4.2-5.9-6.4-14.1-6.4-24.6c0-15.4,3.1-27.6,9.4-36.6
		c6.3-9,14.9-13.5,25.8-13.5c7,0,14.1,2.6,21.1,7.9c-0.7,16.7-1,34-1,52c-2.3,0.5-4.2,2.1-5.8,4.8c-1.3,2.6-2.7,5.1-4.1,7.6
		c-4.9,7.5-12.1,11.2-21.5,11.2C764.2,136,758.3,133,754.1,127.2z"/>
</g>
<g>
	<circle fill="#F23F42" cx="836.8" cy="155.4" r="35.6"/>
	<text transform="matrix(1 0 0 1 826.1152 175.7812)" fill="#FFFFFF" font-family="'Impact'" font-size="50.5px">1</text>
</g>
</svg>
