<?xml version="1.0" encoding="utf-8"?>
<!-- Generator: Adobe Illustrator 27.1.1, SVG Export Plug-In . SVG Version: 6.00 Build 0)  -->
<svg version="1.2" baseProfile="tiny" id="Layer_1" xmlns="http://www.w3.org/2000/svg" xmlns:xlink="http://www.w3.org/1999/xlink"
	 x="0px" y="0px" viewBox="0 0 376 376" overflow="visible" xml:space="preserve">
<circle fill="#5865F2" stroke="#5E50EE" stroke-width="14" stroke-miterlimit="10" cx="188" cy="188" r="181"/>
<g>
	<g>
		<circle fill="#5E50EE" cx="112" cy="172" r="55"/>
		<circle fill="#5E50EE" cx="274" cy="172" r="55"/>
	</g>
	<path fill="none" stroke="#5E50EE" stroke-width="15" stroke-linecap="round" stroke-miterlimit="10" d="M245,245.2
		c-6.7,9.2-14.7,16.6-23.6,21.8c-8.9,5.1-18.6,8-28.9,8s-20-2.8-28.9-8c-8.9-5.1-16.9-12.6-23.6-21.8"/>
</g>
<g>
	<circle fill="#FFFFFF" cx="107" cy="164" r="55"/>
	<circle fill="#FFFFFF" cx="269" cy="164" r="55"/>
</g>
<circle cx="107" cy="164" r="24"/>
<circle cx="269" cy="164" r="24"/>
<path fill="none" stroke="#FFFFFF" stroke-width="15" stroke-linecap="round" stroke-miterlimit="10" d="M240,237.2
	c-6.7,9.2-14.7,16.6-23.6,21.8c-8.9,5.1-18.6,8-28.9,8s-20-2.8-28.9-8c-8.9-5.1-16.9-12.6-23.6-21.8"/>
</svg>
